# Blender v2.83.4 OBJ File: ''
# www.blender.org
mtllib Grass.mtl
o Cylinder_Cylinder.001
v 0.000000 0.000651 -1.000000
v -0.114064 2.341381 -0.450409
v 0.866025 0.000651 0.500000
v 0.236366 2.341381 0.156553
v -0.866025 0.000651 0.500000
v -0.464494 2.341381 0.156553
v -0.243299 4.669485 0.477488
v -0.189769 4.669485 0.570205
v -0.296829 4.669485 0.570205
v 0.970629 0.018911 -0.716761
v 0.983149 1.831434 -1.151220
v 0.107192 0.018911 -1.743058
v 0.633766 1.831434 -1.566502
v 1.427710 0.018911 -1.977668
v 1.168103 1.831434 -1.661435
v 0.955992 3.634180 -1.876156
v 0.902622 3.634180 -1.939592
v 0.984244 3.634180 -1.954093
v 1.184702 -0.050976 -0.000227
v 1.612686 1.761547 0.075542
v 2.325987 -0.050976 -0.704698
v 2.074497 1.761547 -0.209515
v 2.365434 -0.050976 0.635920
v 2.090459 1.761547 0.332953
v 2.333827 3.564293 0.154438
v 2.404371 3.564293 0.110895
v 2.406809 3.564293 0.193759
v 0.847063 -0.088544 0.781794
v 1.112782 1.987082 1.202663
v 2.323387 -0.088544 1.205362
v 1.710163 1.987082 1.374056
v 1.218405 -0.088544 2.272112
v 1.263042 1.987082 1.805707
v 1.601816 4.051513 1.874221
v 1.693069 4.051513 1.900401
v 1.624769 4.051513 1.966338
vt 1.000000 0.500000
vt 1.000000 1.000000
vt 0.666667 1.000000
vt 0.666667 0.500000
vt 0.333333 1.000000
vt 0.333333 0.500000
vt -0.000000 1.000000
vt 0.333333 1.000000
vt -0.000000 1.000000
vt -0.000000 0.500000
vt 0.750000 0.490000
vt 0.957846 0.130000
vt 0.542154 0.130000
vt 0.457846 0.130000
vt 0.250000 0.490000
vt 0.042154 0.130000
vt 0.666667 1.000000
vt 1.000000 1.000000
vt 1.000000 0.500000
vt 1.000000 1.000000
vt 0.666667 1.000000
vt 0.666667 0.500000
vt 0.333333 1.000000
vt 0.333333 0.500000
vt -0.000000 1.000000
vt 0.333333 1.000000
vt -0.000000 1.000000
vt -0.000000 0.500000
vt 0.750000 0.490000
vt 0.957846 0.130000
vt 0.542154 0.130000
vt 0.457846 0.130000
vt 0.250000 0.490000
vt 0.042154 0.130000
vt 0.666667 1.000000
vt 1.000000 1.000000
vt 1.000000 0.500000
vt 1.000000 1.000000
vt 0.666667 1.000000
vt 0.666667 0.500000
vt 0.333333 1.000000
vt 0.333333 0.500000
vt -0.000000 1.000000
vt 0.333333 1.000000
vt -0.000000 1.000000
vt -0.000000 0.500000
vt 0.750000 0.490000
vt 0.957846 0.130000
vt 0.542154 0.130000
vt 0.457846 0.130000
vt 0.250000 0.490000
vt 0.042154 0.130000
vt 0.666667 1.000000
vt 1.000000 1.000000
vt 1.000000 0.500000
vt 1.000000 1.000000
vt 0.666667 1.000000
vt 0.666667 0.500000
vt 0.333333 1.000000
vt 0.333333 0.500000
vt -0.000000 1.000000
vt 0.333333 1.000000
vt -0.000000 1.000000
vt -0.000000 0.500000
vt 0.750000 0.490000
vt 0.957846 0.130000
vt 0.542154 0.130000
vt 0.457846 0.130000
vt 0.250000 0.490000
vt 0.042154 0.130000
vt 0.666667 1.000000
vt 1.000000 1.000000
vn 0.8552 0.1576 -0.4938
vn -0.0000 0.1452 0.9894
vn -0.8563 0.1495 -0.4944
vn -0.8636 0.0750 -0.4986
vn 0.0000 -1.0000 0.0000
vn 0.0000 1.0000 0.0000
vn -0.0000 -0.1749 0.9846
vn 0.8407 0.2401 -0.4854
vn -0.7556 0.1576 0.6357
vn -0.1731 0.1452 -0.9742
vn 0.9296 0.1495 0.3370
vn 0.9375 0.0750 0.3398
vn -0.1722 -0.1749 -0.9694
vn -0.7428 0.2401 0.6249
vn -0.5187 0.1576 -0.8403
vn 0.9890 0.1452 -0.0291
vn -0.4690 0.1495 0.8705
vn -0.4730 0.0750 0.8779
vn 0.9842 -0.1749 -0.0290
vn -0.5099 0.2401 -0.8260
vn 0.2723 0.1576 -0.9492
vn 0.6872 0.1452 0.7118
vn -0.9594 0.1495 0.2391
vn -0.9676 0.0750 0.2411
vn 0.6838 -0.1749 0.7083
vn 0.2677 0.2401 -0.9331
usemtl Material.001
s off
f 1/1/1 2/2/1 4/3/1 3/4/1
f 3/4/2 4/3/2 6/5/2 5/6/2
f 2/7/3 6/5/3 9/8/3 7/9/3
f 5/6/4 6/5/4 2/7/4 1/10/4
f 1/11/5 3/12/5 5/13/5
f 8/14/6 7/15/6 9/16/6
f 6/5/7 4/3/7 8/17/7 9/8/7
f 4/3/8 2/2/8 7/18/8 8/17/8
f 10/19/9 11/20/9 13/21/9 12/22/9
f 12/22/10 13/21/10 15/23/10 14/24/10
f 11/25/11 15/23/11 18/26/11 16/27/11
f 14/24/12 15/23/12 11/25/12 10/28/12
f 10/29/5 12/30/5 14/31/5
f 17/32/6 16/33/6 18/34/6
f 15/23/13 13/21/13 17/35/13 18/26/13
f 13/21/14 11/20/14 16/36/14 17/35/14
f 19/37/15 20/38/15 22/39/15 21/40/15
f 21/40/16 22/39/16 24/41/16 23/42/16
f 20/43/17 24/41/17 27/44/17 25/45/17
f 23/42/18 24/41/18 20/43/18 19/46/18
f 19/47/5 21/48/5 23/49/5
f 26/50/6 25/51/6 27/52/6
f 24/41/19 22/39/19 26/53/19 27/44/19
f 22/39/20 20/38/20 25/54/20 26/53/20
f 28/55/21 29/56/21 31/57/21 30/58/21
f 30/58/22 31/57/22 33/59/22 32/60/22
f 29/61/23 33/59/23 36/62/23 34/63/23
f 32/60/24 33/59/24 29/61/24 28/64/24
f 28/65/5 30/66/5 32/67/5
f 35/68/6 34/69/6 36/70/6
f 33/59/25 31/57/25 35/71/25 36/62/25
f 31/57/26 29/56/26 34/72/26 35/71/26
