# Blender v2.83.4 OBJ File: ''
# www.blender.org
mtllib GroundLowPoly.mtl
o Plane
v -34.000000 0.000000 34.000000
v 34.902302 1.049783 33.565384
v -33.604904 -1.022686 -32.403046
v 35.774033 4.231357 -33.790565
v 0.735093 1.354869 34.746555
v 1.774033 2.600474 -33.790565
v -17.000000 0.000000 -34.000000
v -16.264906 1.354869 34.746555
v 18.637394 2.404653 34.311939
v 18.941416 5.090620 -32.436752
v 27.137394 2.404653 34.311939
v 27.441416 5.090620 -32.436752
v 10.274033 4.231357 -33.790565
v 9.235093 1.354869 34.746555
v -33.604904 -1.022686 1.596952
v 34.902477 2.214132 2.100366
v 0.735093 1.354869 0.746554
v -15.869812 0.332183 2.343507
v 17.902477 3.845015 2.100366
v 26.402477 3.845015 2.100366
v 9.235093 2.985752 0.746554
v 34.704857 4.872002 -13.412142
v 1.774033 4.231357 -16.790567
v -16.264906 1.354869 -16.253447
v 18.743795 6.117606 -13.949262
v 27.243795 6.117606 -13.949262
v 10.441417 5.090620 -15.436756
v -33.604904 -1.022686 -15.403048
v -34.682430 -3.268056 18.695101
v 34.735092 1.354869 17.746553
v 0.735093 1.354869 17.746553
v -16.264906 1.354869 17.746553
v 17.735094 1.354869 17.746553
v 26.235094 1.354869 17.746553
v 9.235093 1.354869 17.746553
v -35.077526 -2.245370 25.598148
v 34.735092 1.354869 26.246553
v 1.637394 2.404653 25.811937
v -16.264906 1.354869 26.246553
v 18.587421 3.051258 28.132269
v 26.235094 1.354869 26.246553
v 10.087420 3.051258 28.132269
v 34.902477 2.214132 10.600366
v 0.735093 1.354869 9.246554
v -15.869812 0.332183 10.843507
v 17.735094 1.354869 9.246554
v 26.235094 2.985752 9.246554
v 9.235093 1.354869 9.246554
v -33.947338 -1.913187 10.941654
v -33.604904 -1.022686 -6.903048
v 34.704857 4.872002 -4.912141
v 0.735093 2.985752 -7.753446
v -15.869812 0.332183 -6.156493
v 18.743795 6.117606 -5.449261
v 27.243795 6.117606 -5.449261
v 10.441417 5.090620 -6.936754
v 35.941418 5.090620 -23.936756
v 1.774033 2.600474 -25.290567
v -16.264906 1.354869 -24.753447
v 18.941416 5.090620 -23.936756
v 27.441416 5.090620 -23.936756
v 10.274033 4.231357 -25.290567
v -33.604904 -1.022686 -23.903048
v 6.024033 3.415915 -33.790565
v 4.985093 1.354869 34.746555
v 4.985093 2.170310 0.746554
v 6.024033 4.231357 -16.790567
v 4.985093 1.354869 17.746553
v 5.837420 3.051258 28.132269
v 4.985093 1.354869 9.246554
v 5.504563 3.608554 -8.022005
v 6.024033 3.415915 -25.290567
v 13.936243 1.879761 34.529247
v 14.524033 4.231357 -33.790565
v 13.485094 2.985752 0.746554
v 14.592607 5.604113 -14.693008
v 13.485094 1.354869 17.746553
v 14.337420 3.051258 28.132269
v 13.485094 1.354869 9.246554
v 14.592607 5.604113 -6.193007
v 14.691417 5.090620 -23.936756
v 23.191416 5.090620 -32.436752
v 22.887394 2.404653 34.311939
v 22.152477 3.845015 2.100366
v 22.993795 6.117606 -13.949262
v 21.985094 1.354869 17.746553
v 22.386272 2.526366 28.349577
v 21.985094 2.170310 9.246554
v 22.993795 6.117606 -5.449261
v 23.191416 5.090620 -23.936756
v 31.019848 1.727218 33.938660
v 31.691416 5.090620 -32.436752
v 30.652475 3.029574 2.100366
v 30.974325 5.494804 -13.680702
v 30.485092 1.354869 17.746553
v 30.485092 1.354869 26.246553
v 30.485092 2.170310 9.246554
v 30.974325 5.494804 -5.180701
v 31.691416 5.090620 -23.936756
vt 0.937500 0.875000
vt 1.000000 0.875000
vt 1.000000 1.000000
vt 0.937500 1.000000
vt 0.250000 0.875000
vt 0.500000 0.875000
vt 0.500000 1.000000
vt 0.250000 1.000000
vt 0.000000 0.875000
vt 0.000000 1.000000
vt 0.687500 0.875000
vt 0.750000 0.875000
vt 0.750000 1.000000
vt 0.687500 1.000000
vt 0.812500 0.875000
vt 0.875000 0.875000
vt 0.875000 1.000000
vt 0.812500 1.000000
vt 0.562500 0.875000
vt 0.625000 0.875000
vt 0.625000 1.000000
vt 0.562500 1.000000
vt 0.562500 0.375000
vt 0.625000 0.375000
vt 0.625000 0.500000
vt 0.562500 0.500000
vt 0.812500 0.375000
vt 0.875000 0.375000
vt 0.875000 0.500000
vt 0.812500 0.500000
vt 0.687500 0.375000
vt 0.750000 0.375000
vt 0.750000 0.500000
vt 0.687500 0.500000
vt 0.000000 0.375000
vt 0.250000 0.375000
vt 0.250000 0.500000
vt 0.000000 0.500000
vt 0.500000 0.375000
vt 0.500000 0.500000
vt 0.937500 0.375000
vt 1.000000 0.375000
vt 1.000000 0.500000
vt 0.937500 0.500000
vt 0.562500 0.625000
vt 0.625000 0.625000
vt 0.625000 0.750000
vt 0.562500 0.750000
vt 0.812500 0.625000
vt 0.875000 0.625000
vt 0.875000 0.750000
vt 0.812500 0.750000
vt 0.687500 0.625000
vt 0.750000 0.625000
vt 0.750000 0.750000
vt 0.687500 0.750000
vt 0.000000 0.625000
vt 0.250000 0.625000
vt 0.250000 0.750000
vt 0.000000 0.750000
vt 0.500000 0.625000
vt 0.500000 0.750000
vt 0.937500 0.625000
vt 1.000000 0.625000
vt 1.000000 0.750000
vt 0.937500 0.750000
vt 0.937500 0.125000
vt 1.000000 0.125000
vt 1.000000 0.250000
vt 0.937500 0.250000
vt 0.250000 0.125000
vt 0.500000 0.125000
vt 0.500000 0.250000
vt 0.250000 0.250000
vt 0.000000 0.125000
vt 0.000000 0.250000
vt 0.687500 0.125000
vt 0.750000 0.125000
vt 0.750000 0.250000
vt 0.687500 0.250000
vt 0.812500 0.125000
vt 0.875000 0.125000
vt 0.875000 0.250000
vt 0.812500 0.250000
vt 0.562500 0.125000
vt 0.625000 0.125000
vt 0.625000 0.250000
vt 0.562500 0.250000
vt 0.562500 0.000000
vt 0.625000 0.000000
vt 0.812500 0.000000
vt 0.875000 0.000000
vt 0.687500 0.000000
vt 0.750000 0.000000
vt 0.000000 0.000000
vt 0.250000 0.000000
vt 0.500000 0.000000
vt 0.937500 0.000000
vt 1.000000 0.000000
vn 0.0948 0.9944 -0.0474
vn -0.1043 0.9920 -0.0714
vn -0.1045 0.9920 -0.0714
vn -0.0915 0.9948 -0.0457
vn 0.0000 1.0000 0.0000
vn -0.1884 0.9821 0.0000
vn -0.0945 0.9854 0.1418
vn -0.0941 0.9807 0.1717
vn -0.1342 0.9586 0.2511
vn -0.1008 0.9938 0.0477
vn -0.0615 0.9981 0.0000
vn 0.0799 0.9953 0.0555
vn -0.2494 0.9680 0.0274
vn -0.1228 0.9924 0.0000
vn -0.1055 0.9928 0.0568
vn -0.1500 0.9824 0.1114
vn 0.1647 0.9863 0.0000
vn -0.0308 0.9976 -0.0615
vn -0.2157 0.9739 -0.0702
vn 0.0000 0.9869 -0.1612
vn 0.1267 0.9899 -0.0634
vn 0.0000 0.9686 0.2484
vn 0.1229 0.9894 -0.0778
vn -0.0545 0.9885 0.1414
vn -0.1287 0.9841 -0.1225
vn -0.0293 0.9979 0.0586
vn 0.0826 0.9965 -0.0083
vn -0.0216 0.9941 0.1062
vn -0.0335 0.9972 -0.0671
vn -0.1847 0.9828 0.0080
vn 0.1562 0.9294 0.3345
vn -0.1005 0.9904 0.0950
vn -0.0762 0.9971 0.0000
vn -0.2193 0.9330 0.2854
vn 0.0000 0.9576 0.2882
vn -0.2584 0.9496 0.1774
vn -0.1757 0.9805 -0.0879
vn 0.0000 0.9948 -0.1023
vn -0.0537 0.9953 -0.0806
vn -0.1358 0.9907 0.0000
vn -0.1158 0.9887 -0.0949
vn 0.0779 0.9970 -0.0016
vn -0.0945 0.9854 -0.1418
vn -0.1503 0.9742 0.1686
vn -0.1188 0.9800 0.1597
vn -0.0362 0.9890 -0.1437
vn -0.0656 0.9930 0.0985
vn -0.0954 0.9943 0.0477
vn -0.1410 0.9875 -0.0705
vn -0.0842 0.9520 0.2942
vn -0.0521 0.9763 0.2102
vn 0.0000 0.9821 0.1884
vn 0.0633 0.9962 0.0602
vn 0.0682 0.9879 -0.1391
vn -0.0918 0.9566 0.2766
vn 0.0799 0.9946 -0.0667
vn 0.1584 0.9369 0.3117
vn 0.0945 0.9854 0.1418
vn 0.0782 0.9922 -0.0967
vn 0.1870 0.9748 0.1216
usemtl Material.001
s off
f 99/1/1 57/2/1 4/3/1 92/4/1
f 59/5/2 58/6/2 6/7/2 7/8/2
f 63/9/3 59/5/3 7/8/3 3/10/3
f 81/11/4 60/12/4 10/13/4 74/14/4
f 90/15/5 61/16/5 12/17/5 82/18/5
f 72/19/6 62/20/6 13/21/6 64/22/6
f 70/23/7 48/24/7 21/25/7 66/26/7
f 88/27/8 47/28/8 20/29/8 84/30/8
f 79/31/9 46/32/9 19/33/9 75/34/9
f 49/35/10 45/36/10 18/37/10 15/38/10
f 45/36/11 44/39/11 17/40/11 18/37/11
f 97/41/12 43/42/12 16/43/12 93/44/12
f 71/45/13 56/46/13 27/47/13 67/48/13
f 89/49/5 55/50/5 26/51/5 85/52/5
f 80/53/14 54/54/14 25/55/14 76/56/14
f 50/57/15 53/58/15 24/59/15 28/60/15
f 53/58/16 52/61/16 23/62/16 24/59/16
f 98/63/17 51/64/17 22/65/17 94/66/17
f 96/67/5 37/68/5 30/69/5 95/70/5
f 39/71/18 38/72/18 31/73/18 32/74/18
f 36/75/19 39/71/19 32/74/19 29/76/19
f 78/77/20 40/78/20 33/79/20 77/80/20
f 87/81/21 41/82/21 34/83/21 86/84/21
f 69/85/20 42/86/20 35/87/20 68/88/20
f 65/89/22 14/90/22 42/86/22 69/85/22
f 83/91/23 11/92/23 41/82/23 87/81/23
f 73/93/24 9/94/24 40/78/24 78/77/24
f 1/95/25 8/96/25 39/71/25 36/75/25
f 8/96/26 5/97/26 38/72/26 39/71/26
f 91/98/27 2/99/27 37/68/27 96/67/27
f 95/70/28 30/69/28 43/42/28 97/41/28
f 32/74/29 31/73/29 44/39/29 45/36/29
f 29/76/30 32/74/30 45/36/30 49/35/30
f 77/80/5 33/79/5 46/32/5 79/31/5
f 86/84/7 34/83/7 47/28/7 88/27/7
f 68/88/5 35/87/5 48/24/5 70/23/5
f 93/44/31 16/43/31 51/64/31 98/63/31
f 18/37/32 17/40/32 52/61/32 53/58/32
f 15/38/33 18/37/33 53/58/33 50/57/33
f 75/34/34 19/33/34 54/54/34 80/53/34
f 84/30/35 20/29/35 55/50/35 89/49/35
f 66/26/36 21/25/36 56/46/36 71/45/36
f 67/48/37 27/47/37 62/20/37 72/19/37
f 85/52/38 26/51/38 61/16/38 90/15/38
f 76/56/39 25/55/39 60/12/39 81/11/39
f 28/60/40 24/59/40 59/5/40 63/9/40
f 24/59/41 23/62/41 58/6/41 59/5/41
f 94/66/42 22/65/42 57/2/42 99/1/42
f 23/62/43 67/48/43 72/19/43 58/6/43
f 17/40/44 66/26/44 71/45/44 52/61/44
f 31/73/5 68/88/5 70/23/5 44/39/5
f 5/97/45 65/89/45 69/85/45 38/72/45
f 38/72/46 69/85/46 68/88/46 31/73/46
f 52/61/47 71/45/47 67/48/47 23/62/47
f 44/39/48 70/23/48 66/26/48 17/40/48
f 58/6/6 72/19/6 64/22/6 6/7/6
f 27/47/49 76/56/49 81/11/49 62/20/49
f 21/25/50 75/34/50 80/53/50 56/46/50
f 35/87/5 77/80/5 79/31/5 48/24/5
f 14/90/51 73/93/51 78/77/51 42/86/51
f 42/86/20 78/77/20 77/80/20 35/87/20
f 56/46/14 80/53/14 76/56/14 27/47/14
f 48/24/52 79/31/52 75/34/52 21/25/52
f 62/20/4 81/11/4 74/14/4 13/21/4
f 25/55/38 85/52/38 90/15/38 60/12/38
f 19/33/35 84/30/35 89/49/35 54/54/35
f 33/79/48 86/84/48 88/27/48 46/32/48
f 9/94/53 83/91/53 87/81/53 40/78/53
f 40/78/54 87/81/54 86/84/54 33/79/54
f 54/54/5 89/49/5 85/52/5 25/55/5
f 46/32/55 88/27/55 84/30/55 19/33/55
f 60/12/5 90/15/5 82/18/5 10/13/5
f 26/51/56 94/66/56 99/1/56 61/16/56
f 20/29/57 93/44/57 98/63/57 55/50/57
f 34/83/58 95/70/58 97/41/58 47/28/58
f 11/92/59 91/98/59 96/67/59 41/82/59
f 41/82/5 96/67/5 95/70/5 34/83/5
f 55/50/17 98/63/17 94/66/17 26/51/17
f 47/28/60 97/41/60 93/44/60 20/29/60
f 61/16/5 99/1/5 92/4/5 12/17/5
